<svg width="603" height="172" viewBox="0 0 603 172" fill="none" xmlns="http://www.w3.org/2000/svg">
<path d="M290.213 103.311V111.71H257.659V103.311H290.213ZM287.069 115.65V123.683H261.216V115.65H287.069ZM287.269 127.67V135.703H261.204V127.67H287.269ZM269.449 139.926V170.667H261.31V139.926H269.449ZM287.245 139.926V166.88H265.539V158.34H278.883V148.384H265.539V139.915H287.245V139.926ZM274.03 88.1767C276.268 91.9161 278.753 96.7761 280.061 100.067L272.24 104.703C271.192 101.329 268.613 95.9858 266.552 92.1284L274.042 88.1767H274.03ZM318.61 126.785V136.635H290.178V126.785H318.61ZM325.724 93.1193V103.229H291.379V93.1193H325.724ZM310 99.6779V171.799H300.119V99.6779H310ZM331.436 93.1193C330.588 122.374 330.682 159.048 333.909 160.121C334.392 160.275 334.84 154.459 335.122 148.75C336.595 151.546 339.174 155.698 340.67 157.349C339.315 170.372 334.734 173.132 329.281 170.797C319.905 166.939 320.848 129.888 320.848 93.1193H331.436Z" fill="#413C3A"/>
<path d="M363.307 148.054C361.128 154.093 358.171 162.197 355.286 167.494L345.416 162.764C348.596 157.715 351.953 150.248 353.884 144.126L363.307 148.054ZM414.917 96.434V140.103H358.796V96.434H414.917ZM375.838 145.529V157.679C375.838 160.334 376.71 160.652 381.869 160.652H396.921C401.173 160.652 401.879 159.461 402.374 151.05C404.624 152.702 409.205 154.235 412.091 154.825C410.795 167.293 407.745 170.29 397.698 170.29H380.844C368.3 170.29 365.12 167.352 365.12 157.809V145.518H375.838V145.529ZM369.031 108.608H404.211V104.538H369.031V108.608ZM369.031 120.262H404.211V116.157H369.031V120.262ZM369.031 131.999H404.211V127.871H369.031V131.999ZM394.471 89.2619C392.445 93.485 390.137 97.2361 388.535 99.8785L378.747 97.9793C379.808 94.7943 381.032 90.6893 381.539 87.6459L394.459 89.2619H394.471ZM387.51 138.322C391.774 142.191 396.544 147.783 398.64 151.805L389.96 156.925C388.134 152.937 383.506 147.063 379.395 142.899L387.498 138.322H387.51ZM417.909 142.462C421.902 148.278 426.201 156.04 427.696 161.383L417.579 165.783C416.295 160.57 412.326 152.442 408.475 146.355L417.909 142.462Z" fill="#413C3A"/>
<path d="M515.949 131.622V142.345H435.329V131.622H515.949ZM510.802 94.0748V104.609H440.04V94.0748H510.802ZM455.057 107.452C458.096 113.173 461.217 120.64 462.242 125.582L451.912 128.862C451.005 124.072 448.249 116.263 445.376 110.33L455.069 107.463L455.057 107.452ZM481.004 98.5219V171.752H469.933V98.5219H481.004ZM507.186 110.117C504.006 116.912 500.355 124.096 497.41 128.744L488.106 125.971C490.897 120.84 494.124 113.031 495.809 107.204L507.174 110.117H507.186Z" fill="#413C3A"/>
<path d="M527.633 116.452C530.059 115.909 532.12 114.199 535.053 111.391C538.139 108.56 547.82 97.767 553.886 87.1151L564.592 91.7273C556.701 103.063 546.619 113.88 537.409 121.324V121.619C537.409 121.619 531.131 124.792 531.131 126.691C530.624 124.603 528.87 119.307 527.621 116.464L527.633 116.452ZM531.001 118.41L538.162 114.659L592.576 112.866C592.67 115.791 593.095 120.168 593.566 122.433C542.532 124.922 535.925 125.051 531.143 126.691L531.001 118.41ZM594.001 132.613V171.67H582.577V142.793H544.888V171.752H534.016V132.613H593.99H594.001ZM588.054 156.972V167.234H539.258V156.972H588.054ZM579.573 96.7407C587.677 104.408 598.265 115.379 602.988 122.857L593.978 129.451C589.691 121.937 579.55 110.483 571.317 102.308L579.585 96.7407H579.573Z" fill="#413C3A"/>
<path d="M126.045 91.0754C128.52 90.4061 130.686 88.0263 133.223 84.1964C135.822 80.6144 143.791 66.6332 148.197 53.2222L161.303 58.6139C155.35 72.2232 146.638 86.6753 138.495 96.6034V96.8017C138.495 96.8017 130.475 101.053 130.475 103.594C129.733 100.917 127.641 94.5583 126.057 91.0754H126.045ZM143.989 138.658C143.086 150.409 140.908 162.915 138.272 170.934C135.463 169.471 129.56 167.637 126.503 166.683C129.448 159.122 130.921 147.409 131.676 136.725L143.989 138.658ZM126.8 119.534C130.017 118.765 132.703 115.927 136.638 111.303C140.698 106.779 153.568 88.8444 161.129 71.715L173.517 79.2633C164.483 95.9589 151.947 113.249 139.732 125.557V125.979C139.732 125.979 131.416 130.28 131.416 132.808C130.673 130.032 128.483 123.314 126.8 119.534ZM130.067 93.3065L136.193 89.3402L158.11 87.7661C157.293 91.4225 156.711 96.6654 156.637 99.6029C137.133 101.462 132.975 102.454 130.451 103.606L130.055 93.3189L130.067 93.3065ZM130.822 122.26L136.948 118.145L167.206 114.526C166.587 118.083 166.228 123.326 166.352 126.264C139.113 130.205 134.386 131.321 131.416 132.821L130.834 122.26H130.822ZM156.909 136.564C158.419 144.856 159.855 155.466 160.226 162.592L148.742 164.885C148.556 157.759 147.343 146.926 146.007 138.634L156.897 136.564H156.909ZM168.716 102.094C171.871 110.423 175.275 121.492 176.463 128.135L164.929 132.114C163.939 125.347 160.882 114.055 157.924 105.404L168.716 102.094ZM169.384 132.548C171.587 138.696 174.074 146.616 175.126 151.822L164.434 155.577C163.592 150.272 161.241 142.129 159.137 135.882L169.384 132.548ZM244.701 155.032V168.815H172.478V155.032H244.701ZM199.283 77.3422C195.583 83.9981 191.165 91.063 187.093 97.0744C192.378 103.891 197.625 111.836 200.125 117.191L188.059 122.025C185.398 115.381 179.73 106.011 173.27 97.2975C178.294 89.6252 183.628 80.5028 186.512 74.3922L199.295 77.3422H199.283ZM243.303 58.9609V72.4215H175.188V58.9609H243.303ZM239.578 124.219V137.58H178.195V124.219H239.578ZM220.334 77.5405C216.584 84.0229 212.129 91.063 208.119 96.8761C213.441 103.495 218.787 111.254 221.386 116.41L209.443 121.442C206.721 114.898 200.979 105.627 194.234 97.1116C199.444 89.6376 204.654 80.602 207.55 74.5906L220.334 77.5405ZM216.126 130.503V163.411H201.028V130.503H216.126ZM241.842 77.4413C237.932 84.122 233.39 91.063 229.356 97.0744C234.925 103.668 240.729 111.415 243.575 116.67L231.732 122.025C228.687 115.381 222.277 105.887 215.111 97.2975C220.408 89.7244 225.928 80.5028 228.935 74.3922L241.842 77.4413Z" fill="#805C1E"/>
<path d="M30.0972 144.36C25.9885 154.858 19.0088 165.456 12.0785 172C9.393 169.484 3.35376 165.282 0 163.373C6.76939 157.895 12.5859 149.231 15.754 140.741L30.0972 144.372V144.36Z" fill="#805C1E"/>
<path d="M7.96973 58.5271V139.737H54.8357V58.5271H7.96973ZM39.9851 127.751H22.1149V115.964H39.9851V127.751ZM39.9851 104.858H22.1149V93.2321H39.9851V104.858ZM39.9851 82.0273H22.1149V70.5251H39.9851V82.0273Z" fill="#805C1E"/>
<path d="M105.774 54.0279V154.771C105.774 162.233 104.289 166.286 99.8709 168.79C95.5394 171.207 89.2527 171.901 80.1938 171.901C79.5503 167.749 77.1866 161.118 74.959 157.139C80.8002 157.362 86.3321 157.362 88.2503 157.337C90.1932 157.312 90.8491 156.68 90.8491 154.709V54.0279H105.786H105.774Z" fill="#805C1E"/>
<path d="M119.399 83.3536H58.0039V97.31H119.399V83.3536Z" fill="#805C1E"/>
<path d="M86.9373 94.0626L73.0149 121.331L59.5875 114.848L30.8516 164.105L44.18 170.773L66.5054 134.754L79.9204 141.249L100.365 100.557L86.9373 94.0626Z" fill="#BF1A0B"/>
<path d="M103.335 107.176L101.194 80.949L79.5859 95.9217L103.335 107.176Z" fill="#BF1A0B"/>
<path d="M6.3313 9.312H37.7193V28.388H32.9313V13.796H10.8913V28.578H6.3313V9.312ZM8.6873 22.004H35.5913V26.488H8.6873V22.004ZM19.4793 2.7H24.3053V38.382H19.4793V2.7ZM42.6973 20.218H77.3153V24.702H42.6973V20.218ZM46.6493 7.678H73.5533V21.966H68.7273V12.124H51.2473V21.966H46.6493V7.678ZM62.4953 20.902C63.61 24.398 65.4466 27.248 68.0053 29.452C70.564 31.656 74.022 33.176 78.3793 34.012C78.0246 34.3413 77.6573 34.7467 77.2773 35.228C76.9226 35.7093 76.568 36.216 76.2133 36.748C75.884 37.28 75.618 37.7613 75.4153 38.192C72.2993 37.4573 69.6393 36.3553 67.4353 34.886C65.2313 33.4167 63.3946 31.6053 61.9253 29.452C60.456 27.2733 59.24 24.7273 58.2773 21.814L62.4953 20.902ZM57.4413 2.7H62.0773V15.24C62.0773 17.0387 61.9633 18.85 61.7353 20.674C61.5073 22.4727 61.0513 24.2333 60.3673 25.956C59.6833 27.6787 58.708 29.3253 57.4413 30.896C56.1746 32.4413 54.5026 33.8473 52.4253 35.114C50.348 36.3807 47.7766 37.4573 44.7113 38.344C44.5593 37.964 44.344 37.5207 44.0653 37.014C43.7866 36.5073 43.47 36.0007 43.1153 35.494C42.786 35.0127 42.482 34.62 42.2033 34.316C44.914 33.556 47.1813 32.644 49.0053 31.58C50.8293 30.4907 52.2986 29.3 53.4133 28.008C54.5533 26.716 55.402 25.3607 55.9593 23.942C56.542 22.5233 56.9346 21.0793 57.1373 19.61C57.34 18.1153 57.4413 16.646 57.4413 15.202V2.7ZM94.5673 32.834H116.189V37.318H94.5673V32.834ZM96.1253 14.48H115.277V18.888H96.1253V14.48ZM103.345 3.08H108.057V35H103.345V3.08ZM80.9253 9.768H93.3513V13.872H80.9253V9.768ZM86.3593 22.726L90.8813 17.33V38.42H86.3593V22.726ZM86.3593 2.738H90.8813V11.668H86.3593V2.738ZM90.3873 18.622C90.742 18.85 91.2233 19.23 91.8313 19.762C92.4646 20.2687 93.136 20.8387 93.8453 21.472C94.5546 22.08 95.2006 22.65 95.7833 23.182C96.366 23.6887 96.784 24.056 97.0373 24.284L94.3013 28.008C93.9213 27.5267 93.4526 26.9693 92.8953 26.336C92.3633 25.6773 91.7933 25.006 91.1853 24.322C90.5773 23.638 89.982 22.992 89.3993 22.384C88.8166 21.776 88.3226 21.2693 87.9173 20.864L90.3873 18.622ZM91.7173 9.768H92.5913L93.3893 9.578L95.9353 11.25C94.998 13.7327 93.7693 16.1013 92.2493 18.356C90.7293 20.5853 89.0573 22.5993 87.2333 24.398C85.4093 26.1967 83.5473 27.6913 81.6473 28.882C81.5206 28.4767 81.318 27.9953 81.0393 27.438C80.786 26.8553 80.52 26.3107 80.2413 25.804C79.988 25.272 79.7346 24.854 79.4813 24.55C81.2293 23.638 82.9013 22.4473 84.4973 20.978C86.0933 19.4833 87.5246 17.8493 88.7913 16.076C90.058 14.2773 91.0333 12.4407 91.7173 10.566V9.768Z" fill="#BF1A0B"/>
</svg>
