<svg width="188" height="66" viewBox="0 0 188 66" fill="none" xmlns="http://www.w3.org/2000/svg">
<path d="M90.483 44.044V46.6626H80.3333V44.044H90.483ZM89.5026 47.891V50.3956H81.4422V47.891H89.5026ZM89.565 51.6387V54.1433H81.4386V51.6387H89.565ZM84.009 55.4599V65.0443H81.4716V55.4599H84.009ZM89.5576 55.4599V63.8637H82.7899V61.201H86.9504V58.0969H82.7899V55.4563H89.5576V55.4599ZM85.4375 39.3254C86.1352 40.4913 86.91 42.0065 87.3176 43.0326L84.8793 44.478C84.5525 43.4261 83.7483 41.7601 83.1057 40.5575L85.4412 39.3254H85.4375ZM99.3365 51.3629V54.4338H90.472V51.3629H99.3365ZM101.554 40.8664V44.0183H90.8466V40.8664H101.554ZM96.6522 42.9113V65.3974H93.5713V42.9113H96.6522ZM103.335 40.8664C103.071 49.9874 103.1 61.4217 104.107 61.7563C104.257 61.8041 104.397 59.991 104.485 58.2109C104.944 59.0826 105.748 60.3772 106.214 60.892C105.792 64.9523 104.364 65.813 102.663 65.0847C99.7404 63.8821 100.034 52.3301 100.034 40.8664H103.335Z" fill="#413C3A"/>
<path d="M113.272 57.9939C112.593 59.877 111.671 62.4036 110.772 64.055L107.694 62.5802C108.686 61.0061 109.732 58.678 110.335 56.7692L113.272 57.9939ZM129.363 41.8999V55.5151H111.866V41.8999H129.363ZM117.179 57.2069V60.995C117.179 61.8225 117.451 61.9218 119.06 61.9218H123.752C125.078 61.9218 125.298 61.5504 125.453 58.9281C126.154 59.443 127.583 59.9211 128.482 60.105C128.078 63.9924 127.127 64.9266 123.995 64.9266H118.74C114.829 64.9266 113.838 64.0108 113.838 61.0355V57.2032H117.179V57.2069ZM115.057 45.6954H126.026V44.4265H115.057V45.6954ZM115.057 49.329H126.026V48.0492H115.057V49.329ZM115.057 52.9884H126.026V51.7012H115.057V52.9884ZM122.989 39.6638C122.357 40.9804 121.637 42.15 121.138 42.9738L118.086 42.3817C118.417 41.3886 118.799 40.1088 118.957 39.1599L122.985 39.6638H122.989ZM120.818 54.9598C122.148 56.1661 123.635 57.9094 124.289 59.1635L121.582 60.7597C121.013 59.5166 119.57 57.685 118.288 56.3867L120.815 54.9598H120.818ZM130.296 56.2507C131.541 58.0638 132.881 60.4838 133.348 62.1499L130.193 63.5217C129.793 61.8961 128.556 59.3621 127.355 57.4643L130.296 56.2507Z" fill="#413C3A"/>
<path d="M160.863 52.8708V56.2139H135.727V52.8708H160.863ZM159.258 41.1643V44.4486H137.196V41.1643H159.258ZM141.878 45.3349C142.826 47.1187 143.799 49.4467 144.118 50.9877L140.898 52.0102C140.615 50.517 139.756 48.0823 138.86 46.2323L141.882 45.3386L141.878 45.3349ZM149.968 42.5508V65.3827H146.516V42.5508H149.968ZM158.131 46.1661C157.139 48.2845 156.001 50.5243 155.083 51.9734L152.182 51.1091C153.052 49.5092 154.059 47.0745 154.584 45.2577L158.127 46.1661H158.131Z" fill="#413C3A"/>
<path d="M164.506 48.1411C165.262 47.9719 165.905 47.4386 166.819 46.5633C167.781 45.6806 170.8 42.3154 172.691 38.9944L176.029 40.4324C173.569 43.9668 170.425 47.3393 167.554 49.66V49.752C167.554 49.752 165.596 50.7413 165.596 51.3334C165.438 50.6825 164.891 49.0311 164.502 48.1448L164.506 48.1411ZM165.556 48.7516L167.789 47.5821L184.754 47.023C184.783 47.9351 184.915 49.2996 185.062 50.0057C169.151 50.7818 167.091 50.8222 165.6 51.3334L165.556 48.7516ZM185.198 53.1797V65.3569H181.636V56.3536H169.885V65.3826H166.496V53.1797H185.195H185.198ZM183.344 60.7744V63.974H168.13V60.7744H183.344ZM180.7 41.9955C183.226 44.386 186.528 47.8064 188 50.1381L185.191 52.194C183.854 49.8513 180.692 46.2801 178.126 43.7314L180.703 41.9955H180.7Z" fill="#413C3A"/>
<path d="M39.2982 40.2292C40.0699 40.0205 40.7451 39.2785 41.5361 38.0844C42.3464 36.9676 44.8312 32.6085 46.2048 28.4273L50.2909 30.1083C48.435 34.3514 45.7187 38.8573 43.1798 41.9527V42.0145C43.1798 42.0145 40.6795 43.34 40.6795 44.1322C40.448 43.2975 39.796 41.3151 39.3021 40.2292H39.2982ZM44.893 55.0646C44.6113 58.7281 43.9322 62.6273 43.1104 65.1276C42.2345 64.6716 40.394 64.0996 39.441 63.8021C40.3593 61.4448 40.8184 57.7929 41.0538 54.4618L44.893 55.0646ZM39.5336 49.1018C40.5368 48.8623 41.3741 47.9773 42.601 46.5359C43.8666 45.1254 47.8794 39.5336 50.2369 34.193L54.0992 36.5464C51.2825 41.7517 47.3739 47.1426 43.5657 50.9799V51.1113C43.5657 51.1113 40.9728 52.4523 40.9728 53.2406C40.7413 52.375 40.0583 50.2805 39.5336 49.1018ZM40.5522 40.9248L42.4621 39.6881L49.2954 39.1974C49.0408 40.3374 48.8594 41.972 48.8363 42.8879C42.7554 43.4675 41.4589 43.7767 40.6718 44.1361L40.5484 40.9286L40.5522 40.9248ZM40.7876 49.952L42.6975 48.669L52.1314 47.5406C51.9385 48.6497 51.8266 50.2844 51.8652 51.2002C43.3727 52.4291 41.8988 52.7769 40.9728 53.2445L40.7914 49.952H40.7876ZM48.9212 54.4115C49.3919 56.9968 49.8395 60.3048 49.9552 62.5268L46.3746 63.2417C46.3167 61.0197 45.9386 57.6422 45.5219 55.0569L48.9173 54.4115H48.9212ZM52.6021 43.6646C53.586 46.2615 54.6471 49.7124 55.0175 51.7837L51.4214 53.0242C51.1128 50.9143 50.1597 47.3938 49.2376 44.6964L52.6021 43.6646ZM52.8105 53.1595C53.4973 55.0762 54.2728 57.5456 54.6008 59.1686L51.2671 60.3396C51.0047 58.6856 50.2716 56.1467 49.6157 54.199L52.8105 53.1595ZM76.293 60.1695V64.4667H53.7751V60.1695H76.293ZM62.1325 35.9474C60.9788 38.0226 59.6013 40.2253 58.3319 42.0995C59.9795 44.225 61.6154 46.702 62.3949 48.3715L58.6329 49.8786C57.8033 47.8073 56.0361 44.8858 54.022 42.1691C55.5886 39.777 57.2515 36.9328 58.1506 35.0277L62.1363 35.9474H62.1325ZM75.857 30.2165V34.4132H54.6201V30.2165H75.857ZM74.6956 50.5626V54.7284H55.5577V50.5626H74.6956ZM68.6957 36.0092C67.5266 38.0303 66.1375 40.2253 64.8874 42.0377C66.5465 44.1013 68.2134 46.5204 69.0237 48.128L65.3003 49.697C64.4514 47.6566 62.6611 44.766 60.5582 42.1111C62.1826 39.7809 63.807 36.9637 64.7099 35.0895L68.6957 36.0092ZM67.3838 52.5218V62.7819H62.6765V52.5218H67.3838ZM75.4017 35.9783C74.1824 38.0612 72.7663 40.2253 71.5085 42.0995C73.2448 44.1554 75.0544 46.5707 75.9418 48.2092L72.2493 49.8786C71.3001 47.8073 69.3015 44.8471 67.0674 42.1691C68.7188 39.8079 70.4397 36.9328 71.3773 35.0277L75.4017 35.9783Z" fill="#805C1E"/>
<path d="M9.38373 56.8423C8.10273 60.1154 5.92657 63.4195 3.76584 65.4599C2.92856 64.6754 1.04564 63.3654 0 62.7703C2.11057 61.0622 3.92404 58.361 4.9118 55.7139L9.38373 56.8461V56.8423Z" fill="#805C1E"/>
<path d="M2.48486 30.0812V55.4008H17.0968V30.0812H2.48486ZM12.4667 51.6639H6.89506V47.9889H12.4667V51.6639ZM12.4667 44.5264H6.89506V40.9016H12.4667V44.5264ZM12.4667 37.4081H6.89506V33.822H12.4667V37.4081Z" fill="#805C1E"/>
<path d="M32.9781 28.6784V60.0884C32.9781 62.4147 32.5151 63.6784 31.1377 64.459C29.7872 65.2126 27.8271 65.429 25.0027 65.429C24.8021 64.1344 24.0651 62.0669 23.3706 60.8265C25.1918 60.896 26.9165 60.896 27.5146 60.8883C28.1203 60.8806 28.3248 60.6835 28.3248 60.069V28.6784H32.982H32.9781Z" fill="#805C1E"/>
<path d="M37.2263 37.8217H18.0845V42.173H37.2263V37.8217Z" fill="#805C1E"/>
<path d="M27.1055 41.1605L22.7647 49.6622L18.5783 47.6411L9.61902 62.9983L13.7746 65.0773L20.7352 53.8473L24.9177 55.8723L31.2919 43.1854L27.1055 41.1605Z" fill="#BF1A0B"/>
<path d="M32.218 45.249L31.5504 37.0719L24.8136 41.7401L32.218 45.249Z" fill="#BF1A0B"/>
<path d="M2.93069 5.66811H21.1027V16.7121H18.3307V8.26411H5.57069V16.8221H2.93069V5.66811ZM4.29469 13.0161H19.8707V15.6121H4.29469V13.0161ZM10.5427 1.84011H13.3367V22.4981H10.5427V1.84011ZM23.9847 11.9821H44.0267V14.5781H23.9847V11.9821ZM26.2727 4.72211H41.8487V12.9941H39.0547V7.29611H28.9347V12.9941H26.2727V4.72211ZM35.4467 12.3781C36.092 14.4021 37.1554 16.0521 38.6367 17.3281C40.118 18.6041 42.12 19.4841 44.6427 19.9681C44.4374 20.1588 44.2247 20.3934 44.0047 20.6721C43.7994 20.9508 43.594 21.2441 43.3887 21.5521C43.198 21.8601 43.044 22.1388 42.9267 22.3881C41.1227 21.9628 39.5827 21.3248 38.3067 20.4741C37.0307 19.6234 35.9674 18.5748 35.1167 17.3281C34.266 16.0668 33.562 14.5928 33.0047 12.9061L35.4467 12.3781ZM32.5207 1.84011H35.2047V9.10011C35.2047 10.1414 35.1387 11.1901 35.0067 12.2461C34.8747 13.2874 34.6107 14.3068 34.2147 15.3041C33.8187 16.3014 33.254 17.2548 32.5207 18.1641C31.7874 19.0588 30.8194 19.8728 29.6167 20.6061C28.414 21.3394 26.9254 21.9628 25.1507 22.4761C25.0627 22.2561 24.938 21.9994 24.7767 21.7061C24.6154 21.4128 24.432 21.1194 24.2267 20.8261C24.036 20.5474 23.86 20.3201 23.6987 20.1441C25.268 19.7041 26.5807 19.1761 27.6367 18.5601C28.6927 17.9294 29.5434 17.2401 30.1887 16.4921C30.8487 15.7441 31.34 14.9594 31.6627 14.1381C32 13.3168 32.2274 12.4808 32.3447 11.6301C32.462 10.7648 32.5207 9.91411 32.5207 9.07811V1.84011ZM54.0147 19.2861H66.5327V21.8821H54.0147V19.2861ZM54.9167 8.66011H66.0047V11.2121H54.9167V8.66011ZM59.0967 2.06011H61.8247V20.5401H59.0967V2.06011ZM46.1167 5.93211H53.3107V8.30811H46.1167V5.93211ZM49.2627 13.4341L51.8807 10.3101V22.5201H49.2627V13.4341ZM49.2627 1.86211H51.8807V7.03211H49.2627V1.86211ZM51.5947 11.0581C51.8 11.1901 52.0787 11.4101 52.4307 11.7181C52.7974 12.0114 53.186 12.3414 53.5967 12.7081C54.0074 13.0601 54.3814 13.3901 54.7187 13.6981C55.056 13.9914 55.298 14.2041 55.4447 14.3361L53.8607 16.4921C53.6407 16.2134 53.3694 15.8908 53.0467 15.5241C52.7387 15.1428 52.4087 14.7541 52.0567 14.3581C51.7047 13.9621 51.36 13.5881 51.0227 13.2361C50.6854 12.8841 50.3994 12.5908 50.1647 12.3561L51.5947 11.0581ZM52.3647 5.93211H52.8707L53.3327 5.82211L54.8067 6.79011C54.264 8.22744 53.5527 9.59877 52.6727 10.9041C51.7927 12.1948 50.8247 13.3608 49.7687 14.4021C48.7127 15.4434 47.6347 16.3088 46.5347 16.9981C46.4614 16.7634 46.344 16.4848 46.1827 16.1621C46.036 15.8248 45.882 15.5094 45.7207 15.2161C45.574 14.9081 45.4274 14.6661 45.2807 14.4901C46.2927 13.9621 47.2607 13.2728 48.1847 12.4221C49.1087 11.5568 49.9374 10.6108 50.6707 9.58411C51.404 8.54277 51.9687 7.47944 52.3647 6.39411V5.93211Z" fill="#BF1A0B"/>
</svg>
