<svg width="27" height="29" viewBox="0 0 27 29" fill="none" xmlns="http://www.w3.org/2000/svg">
<path fill-rule="evenodd" clip-rule="evenodd" d="M17.824 18.215H18.9761L26.2532 26.117L24.0803 28.4717L16.7886 20.5856V19.3371L16.3949 18.8946C14.7324 20.4434 12.574 21.3758 10.2261 21.3758C4.9907 21.3758 0.746948 16.7769 0.746948 11.1033C0.746948 5.42975 4.9907 0.830833 10.2261 0.830833C15.4615 0.830833 19.7053 5.42975 19.7053 11.1033C19.7053 13.6477 18.8449 15.9867 17.4157 17.7883L17.824 18.215ZM3.66362 11.1033C3.66362 15.0385 6.59487 18.2151 10.2261 18.2151C13.8574 18.2151 16.7886 15.0385 16.7886 11.1033C16.7886 7.16818 13.8574 3.99161 10.2261 3.99161C6.59487 3.99161 3.66362 7.16818 3.66362 11.1033Z" fill="white"/>
</svg>
