<svg width="318" height="29" viewBox="0 0 318 29" fill="none" xmlns="http://www.w3.org/2000/svg">
<path d="M6.77529 13.9168C6.77529 9.33891 10.4376 5.67659 15.0155 5.67659C15.5648 5.67659 16.2973 5.67659 16.8467 5.85971V0H14.0999C6.22594 0 0 6.22594 0 13.9168C0 21.6077 6.40905 27.8336 14.283 27.8336H17.0298V21.7908C16.4804 21.9739 15.748 21.9739 15.1986 21.9739C10.4376 22.157 6.77529 18.4947 6.77529 13.9168Z" fill="white"/>
<path d="M17.9453 0V6.40905C21.0583 7.69087 23.2557 10.6207 23.2557 14.0999C23.2557 17.5791 21.0583 20.509 17.9453 21.7908V28.1998H24.5375V12.635L34.6089 26.5518V13.9168L24.5375 0H17.9453Z" fill="white"/>
<path d="M42.6659 0H35.8906V27.8336H42.4828V12.2688L49.2581 21.6077H43.5815V27.8336H58.0476V21.6077L42.6659 0Z" fill="white"/>
<path d="M7.87402 14.1415C7.87402 17.9869 11.1701 21.283 15.0155 21.283C19.0441 21.283 22.1571 18.1701 22.1571 14.1415C22.1571 10.2961 18.861 7 15.0155 7C11.1701 7.18312 7.87402 10.2961 7.87402 14.1415ZM15.0155 8.28181C16.2974 8.28181 17.396 8.64804 18.3116 9.3805C17.9454 9.3805 17.0298 9.56362 16.4805 9.92985C16.2974 10.113 15.9311 10.8454 15.748 11.0285C15.5649 11.2117 15.1987 11.3948 15.0155 11.3948C14.8324 11.3948 14.6493 11.3948 14.4662 11.2117C14.2831 11.0285 14.2831 10.8454 14.1 10.8454C13.9168 10.8454 13.9168 10.8454 13.9168 11.0285C13.7337 11.3948 13.9168 11.9441 13.5506 12.3104C13.3675 12.4935 13.1844 12.6766 13.0013 12.6766C12.8182 12.8597 12.8182 12.8597 12.635 12.8597C12.4519 13.0428 12.4519 13.0428 12.4519 13.2259C12.4519 13.4091 12.4519 13.5922 12.635 13.7753C12.635 13.9584 12.8182 13.9584 12.635 14.1415C12.8182 14.1415 12.635 14.1415 12.635 14.5077C12.8182 15.0571 13.3675 15.6064 13.9168 15.7896C14.1 15.7896 14.2831 15.9727 14.2831 16.1558C14.2831 16.3389 13.9168 16.522 13.7337 16.522C13.0013 16.522 12.2688 16.1558 11.7195 15.6064C11.5363 15.4233 11.1701 15.2402 10.987 14.874C10.987 14.874 10.987 14.6909 10.987 14.5077C10.987 14.3246 10.987 14.1415 10.987 14.1415C10.987 13.9584 10.987 13.7753 10.987 13.5922V13.4091C10.987 13.4091 10.987 13.2259 10.8039 13.2259H10.6208C10.6208 13.2259 10.4376 13.2259 10.4376 13.4091H10.2545C10.0714 13.4091 9.8883 13.4091 9.70518 13.4091C9.52207 13.4091 9.33895 13.4091 9.15583 13.4091C9.70518 10.2961 12.0857 8.28181 15.0155 8.28181ZM17.9454 19.0856C17.7623 19.4519 17.2129 19.8181 16.8467 19.635C16.6636 19.4519 16.4805 19.4519 16.2974 19.2688C16.1142 19.0856 15.9311 19.0856 15.5649 19.0856C15.0155 19.0856 14.4662 19.2688 13.9168 18.9025C13.5506 18.7194 13.1844 18.3532 13.1844 17.8038C13.1844 17.4376 13.7337 17.2545 14.1 17.0714C14.4662 16.8883 15.0155 16.7051 15.3818 16.522C15.3818 16.522 15.9311 16.3389 16.1142 16.522C16.2974 16.522 16.4805 16.522 16.6636 16.7051C16.8467 16.7051 16.8467 16.8883 17.0298 17.0714C17.2129 17.2545 17.2129 17.4376 17.396 17.6207C17.5792 17.8038 17.7623 17.987 17.9454 18.1701C18.1285 18.3532 18.1285 18.5363 18.1285 18.7194C18.3116 18.7194 18.1285 18.9025 17.9454 19.0856Z" fill="white"/>
<path d="M317.551 12.1211L315.391 13.8574C314.862 13.0098 314.283 12.1895 313.654 11.3965C306.454 12.2441 299.782 12.7546 293.639 12.9277L293.051 10.5762C295.73 9.71029 298.638 6.76172 301.773 1.73047L304.604 2.29102C302.744 5.29883 300.534 7.97852 297.973 10.3301C301.628 10.1934 306.24 9.82878 311.809 9.23633C310.651 7.96029 309.247 6.65234 307.598 5.3125L309.758 3.6582C313.103 6.55664 315.701 9.3776 317.551 12.1211ZM315.076 26.3945H312.533V25.1367H297.809V26.3945H295.252V14.8145H315.076V26.3945ZM312.533 22.7031V17.248H297.809V22.7031H312.533Z" fill="white"/>
<path d="M289.209 17.7539H278.312V26.4902H275.77V17.7539H264.846V15.2793H275.77V5.23047H265.57V2.76953H288.621V5.23047H278.312V15.2793H289.209V17.7539ZM272.857 13.1328L270.479 14.2266C269.667 12.1849 268.464 9.98828 266.869 7.63672L269.221 6.46094C270.597 8.45703 271.809 10.681 272.857 13.1328ZM287.473 7.66406C286.26 10.3164 284.934 12.5312 283.494 14.3086L281.197 13.1602C282.51 11.5742 283.836 9.35938 285.176 6.51562L287.473 7.66406Z" fill="white"/>
<path d="M258.379 17.5762H239.867V4H245.131C245.696 3.16146 246.129 2.36849 246.43 1.62109L249.164 2.12695C248.863 2.84701 248.521 3.47135 248.139 4H258.379V17.5762ZM255.973 7.8418V6.13281H242.273V7.8418H255.973ZM255.973 11.6426V9.87891H242.273V11.6426H255.973ZM255.973 15.4297V13.666H242.273V15.4297H255.973ZM252.773 21.3086L250.627 22.6211C250.062 21.7188 249.118 20.5703 247.797 19.1758L249.834 17.8906C250.964 18.9297 251.944 20.069 252.773 21.3086ZM242.424 19.2578C241.367 21.6276 240.163 23.7194 238.814 25.5332L236.736 24.1934C238.149 22.2975 239.316 20.3151 240.236 18.2461L242.424 19.2578ZM261.66 24.3301L259.473 25.5332C258.689 23.7923 257.399 21.8327 255.604 19.6543L257.764 18.4238C259.486 20.5384 260.785 22.5072 261.66 24.3301ZM256.314 22.2793C256.205 24.8587 254.906 26.1484 252.418 26.1484H246.43C245.573 26.1484 244.871 25.9115 244.324 25.4375C243.786 24.9727 243.518 24.2845 243.518 23.373V18.5879H245.979V23.0176C245.979 23.3548 246.102 23.5872 246.348 23.7148C246.603 23.8333 247.168 23.8926 248.043 23.8926L252.227 23.8516C252.573 23.8516 252.906 23.7467 253.225 23.5371C253.544 23.3275 253.758 22.5755 253.867 21.2812L256.314 22.2793Z" fill="white"/>
<path d="M217.979 6.59766H208.9V4.3418H212.482C212.337 3.91341 212.04 3.33464 211.594 2.60547L214.055 1.67578C214.547 2.59635 214.957 3.48503 215.285 4.3418H217.979V6.59766ZM233.605 19.873C233.478 21.3223 233.223 22.653 232.84 23.8652C232.466 25.0684 232.102 25.8203 231.746 26.1211C231.4 26.4219 230.999 26.5723 230.543 26.5723C229.987 26.5723 229.504 26.3581 229.094 25.9297C228.693 25.5104 228.305 24.2617 227.932 22.1836C227.567 20.1055 227.385 18.237 227.385 16.5781V4.90234H223.598V12.4492H226.605V14.8691H223.598V26.4492H221.191V14.8691H218.594V12.4492H221.191V4.90234H218.922V2.55078H229.791V17.1387C229.791 19.3079 230.092 21.4043 230.693 23.4277C231.04 22.1517 231.263 20.5111 231.363 18.5059L233.605 19.873ZM217.363 10.7539H209.57V8.51172H217.363V10.7539ZM217.363 14.8418H209.57V12.627H217.363V14.8418ZM217.391 25.752H214.93V24.4941H211.99V26.4219H209.57V16.7148H217.391V25.752ZM214.93 22.1973V19.0391H211.99V22.1973H214.93Z" fill="white"/>
<path d="M190.621 6.40625C188.926 10.0885 186.87 13.2832 184.455 15.9902C185.549 15.8171 186.606 15.571 187.627 15.252C187.527 14.7598 187.367 14.304 187.148 13.8848L189.076 13.1328C189.732 14.6094 190.193 16.2044 190.457 17.918L188.516 18.6152C188.443 18.2233 188.361 17.8223 188.27 17.4121C185.809 18.0319 183.539 18.5059 181.461 18.834L180.873 16.7969C182.441 15.4206 183.99 13.4609 185.521 10.918C184.173 11.1914 182.855 11.4056 181.57 11.5605L180.982 9.40039C182.705 7.44076 184.09 4.89323 185.139 1.75781L187.49 2.63281C186.506 5.13021 185.357 7.21745 184.045 8.89453C184.783 8.82161 185.772 8.61654 187.012 8.2793C187.385 7.65951 187.868 6.6888 188.461 5.36719L190.621 6.40625ZM204.922 4.7793H190.758V2.40039H204.922V4.7793ZM200.273 15.1973L198.072 16.1816C197.106 14.1764 195.994 12.3079 194.736 10.5762C195.812 9.22721 196.801 7.57747 197.703 5.62695L200 6.51562C199.171 8.05599 198.359 9.40039 197.566 10.5488C198.988 12.8092 199.891 14.3587 200.273 15.1973ZM205.045 15.1426L202.83 16.1816C201.973 14.4134 200.889 12.5951 199.576 10.7266C200.834 8.90365 201.832 7.21289 202.57 5.6543L204.703 6.59766C204.339 7.54557 203.573 8.92188 202.406 10.7266C203.445 12.2669 204.325 13.7389 205.045 15.1426ZM195.461 15.1699L193.342 16.127C192.467 14.4225 191.355 12.5905 190.006 10.6309C191.273 8.87174 192.271 7.21289 193 5.6543L195.27 6.51562C194.786 7.63672 193.957 9.02669 192.781 10.6855C194.13 12.7454 195.023 14.2402 195.461 15.1699ZM205.318 25.8613H190.361V23.4824H196.637V19.1484H191.182V16.7969H204.512V19.1484H199.166V23.4824H205.318V25.8613ZM190.334 22.6758L188.434 23.1543C188.188 21.6322 187.946 20.4837 187.709 19.709L189.582 19.2305C189.901 20.1784 190.152 21.3268 190.334 22.6758ZM184.182 20.0508C183.936 22.1927 183.48 24.3483 182.814 26.5176L180.736 25.5059C181.456 23.0723 181.903 21.0853 182.076 19.5449L184.182 20.0508ZM187.49 25.082L185.33 25.6152C185.348 24.3939 185.161 22.5482 184.77 20.0781L186.779 19.5996C187.226 21.5501 187.463 23.3776 187.49 25.082Z" fill="white"/>
<path d="M177.236 9.76953H174.967V24.1934C174.967 24.8678 174.757 25.3874 174.338 25.752C173.928 26.1257 173.436 26.3353 172.861 26.3809C172.296 26.4264 171.18 26.431 169.512 26.3945L168.5 23.8516C169.238 23.9245 169.977 23.9609 170.715 23.9609C171.599 23.9609 172.123 23.8971 172.287 23.7695C172.451 23.6419 172.533 23.4551 172.533 23.209V12.3672C171.048 16.0312 168.76 19.3535 165.67 22.334L164.07 20.2969C167.397 17.3255 169.808 13.8164 171.303 9.76953H164.891V7.36328H172.533V2.04492H174.967V7.36328H177.236V9.76953ZM163.605 19.6816H156.045L157.973 20.5156C157.307 22.5117 156.214 24.5579 154.691 26.6543L152.709 25.082C154.094 23.1862 155.074 21.3861 155.648 19.6816H154.021V2.66016H163.605V19.6816ZM161.158 7.55469V5.03906H156.428V7.55469H161.158ZM161.158 12.4492V9.76953H156.428V12.4492H161.158ZM161.158 17.3848V14.6367H156.428V17.3848H161.158ZM164.357 24.8906L162.252 26.0117C161.45 24.4805 160.461 22.9857 159.285 21.5273L161.555 20.4062C162.831 22.0013 163.765 23.4961 164.357 24.8906Z" fill="white"/>
<path d="M131.873 5.03906L129.686 6.26953C129.029 5.11198 128.191 4.00911 127.17 2.96094L129.303 1.70312C130.342 2.77865 131.199 3.89062 131.873 5.03906ZM149.291 25.7246H134.621V23.209H140.637V10.8086H135.182V8.30664H140.637V1.92188H143.221V8.30664H148.594V10.8086H143.221V23.209H149.291V25.7246ZM135.51 17.1934L133.746 18.9844C132.99 17.8086 132.178 16.7878 131.312 15.9219V26.3398H128.742V17.043C128.214 17.6172 127.421 18.3372 126.363 19.2031L124.846 17.248C128.1 14.5592 130.237 11.8704 131.258 9.18164H125.215V6.77539H133.924V9.18164C133.286 10.7767 132.602 12.112 131.873 13.1875C133.404 14.582 134.617 15.9173 135.51 17.1934Z" fill="white"/>
<path d="M121.236 16.7422H109.984C109.611 19.0573 108.353 21.0853 106.211 22.8262C104.069 24.5579 101.33 25.8158 97.9941 26.5996L96.791 24.3027C103.007 22.7624 106.544 20.2422 107.4 16.7422H96.9551V14.2812H99.5117V5.59961H107.824V1.99023H110.367V5.59961H118.666V14.2812H121.236V16.7422ZM116.082 14.2812V8.06055H110.367C110.367 10.1022 110.331 12.1758 110.258 14.2812H116.082ZM107.77 8.06055H102.055V14.2812H107.715C107.751 13.1602 107.77 11.0866 107.77 8.06055ZM121.482 24.9453L119.609 26.709C117.048 24.1842 113.913 21.7962 110.203 19.5449L111.857 17.7812C115.604 20.0052 118.812 22.3932 121.482 24.9453Z" fill="white"/>
<path d="M91.9785 18.3145H82.3672V26.3945H79.7969V18.3145H70.2266V6.48828H79.7969V1.99023H82.3672V6.48828H91.9785V18.3145ZM89.3945 15.8398V8.94922H82.3672V15.8398H89.3945ZM79.7969 15.8398V8.94922H72.8242V15.8398H79.7969Z" fill="white"/>
</svg>
