<svg width="166" height="26" viewBox="0 0 166 26" fill="none" xmlns="http://www.w3.org/2000/svg">
<path d="M165.551 11.1211L163.391 12.8574C162.862 12.0098 162.283 11.1895 161.654 10.3965C154.454 11.2441 147.782 11.7546 141.639 11.9277L141.051 9.57617C143.73 8.71029 146.638 5.76172 149.773 0.730469L152.604 1.29102C150.744 4.29883 148.534 6.97852 145.973 9.33008C149.628 9.19336 154.24 8.82878 159.809 8.23633C158.651 6.96029 157.247 5.65234 155.598 4.3125L157.758 2.6582C161.103 5.55664 163.701 8.3776 165.551 11.1211ZM163.076 25.3945H160.533V24.1367H145.809V25.3945H143.252V13.8145H163.076V25.3945ZM160.533 21.7031V16.248H145.809V21.7031H160.533Z" fill="white"/>
<path d="M137.209 16.7539H126.312V25.4902H123.77V16.7539H112.846V14.2793H123.77V4.23047H113.57V1.76953H136.621V4.23047H126.312V14.2793H137.209V16.7539ZM120.857 12.1328L118.479 13.2266C117.667 11.1849 116.464 8.98828 114.869 6.63672L117.221 5.46094C118.597 7.45703 119.809 9.68099 120.857 12.1328ZM135.473 6.66406C134.26 9.31641 132.934 11.5312 131.494 13.3086L129.197 12.1602C130.51 10.5742 131.836 8.35938 133.176 5.51562L135.473 6.66406Z" fill="white"/>
<path d="M106.379 16.5762H87.8672V3H93.1309C93.696 2.16146 94.1289 1.36849 94.4297 0.621094L97.1641 1.12695C96.8633 1.84701 96.5215 2.47135 96.1387 3H106.379V16.5762ZM103.973 6.8418V5.13281H90.2734V6.8418H103.973ZM103.973 10.6426V8.87891H90.2734V10.6426H103.973ZM103.973 14.4297V12.666H90.2734V14.4297H103.973ZM100.773 20.3086L98.627 21.6211C98.0618 20.7188 97.1185 19.5703 95.7969 18.1758L97.834 16.8906C98.9642 17.9297 99.944 19.069 100.773 20.3086ZM90.4238 18.2578C89.3665 20.6276 88.1634 22.7194 86.8145 24.5332L84.7363 23.1934C86.1491 21.2975 87.3158 19.3151 88.2363 17.2461L90.4238 18.2578ZM109.66 23.3301L107.473 24.5332C106.689 22.7923 105.399 20.8327 103.604 18.6543L105.764 17.4238C107.486 19.5384 108.785 21.5072 109.66 23.3301ZM104.314 21.2793C104.205 23.8587 102.906 25.1484 100.418 25.1484H94.4297C93.5729 25.1484 92.8711 24.9115 92.3242 24.4375C91.7865 23.9727 91.5176 23.2845 91.5176 22.373V17.5879H93.9785V22.0176C93.9785 22.3548 94.1016 22.5872 94.3477 22.7148C94.6029 22.8333 95.168 22.8926 96.043 22.8926L100.227 22.8516C100.573 22.8516 100.906 22.7467 101.225 22.5371C101.544 22.3275 101.758 21.5755 101.867 20.2812L104.314 21.2793Z" fill="white"/>
<path d="M65.9785 5.59766H56.9004V3.3418H60.4824C60.3366 2.91341 60.0404 2.33464 59.5938 1.60547L62.0547 0.675781C62.5469 1.59635 62.957 2.48503 63.2852 3.3418H65.9785V5.59766ZM81.6055 18.873C81.4779 20.3223 81.2227 21.653 80.8398 22.8652C80.4661 24.0684 80.1016 24.8203 79.7461 25.1211C79.3997 25.4219 78.9987 25.5723 78.543 25.5723C77.987 25.5723 77.5039 25.3581 77.0938 24.9297C76.6927 24.5104 76.3053 23.2617 75.9316 21.1836C75.5671 19.1055 75.3848 17.237 75.3848 15.5781V3.90234H71.5977V11.4492H74.6055V13.8691H71.5977V25.4492H69.1914V13.8691H66.5938V11.4492H69.1914V3.90234H66.9219V1.55078H77.791V16.1387C77.791 18.3079 78.0918 20.4043 78.6934 22.4277C79.0397 21.1517 79.263 19.5111 79.3633 17.5059L81.6055 18.873ZM65.3633 9.75391H57.5703V7.51172H65.3633V9.75391ZM65.3633 13.8418H57.5703V11.627H65.3633V13.8418ZM65.3906 24.752H62.9297V23.4941H59.9902V25.4219H57.5703V15.7148H65.3906V24.752ZM62.9297 21.1973V18.0391H59.9902V21.1973H62.9297Z" fill="white"/>
<path d="M38.6211 5.40625C36.9258 9.08854 34.8704 12.2832 32.4551 14.9902C33.5488 14.8171 34.6061 14.571 35.627 14.252C35.5267 13.7598 35.3672 13.304 35.1484 12.8848L37.0762 12.1328C37.7324 13.6094 38.1927 15.2044 38.457 16.918L36.5156 17.6152C36.4427 17.2233 36.3607 16.8223 36.2695 16.4121C33.8086 17.0319 31.5391 17.5059 29.4609 17.834L28.873 15.7969C30.4408 14.4206 31.9902 12.4609 33.5215 9.91797C32.1725 10.1914 30.8555 10.4056 29.5703 10.5605L28.9824 8.40039C30.7051 6.44076 32.0905 3.89323 33.1387 0.757812L35.4902 1.63281C34.5059 4.13021 33.3574 6.21745 32.0449 7.89453C32.7832 7.82161 33.7721 7.61654 35.0117 7.2793C35.3854 6.65951 35.8685 5.6888 36.4609 4.36719L38.6211 5.40625ZM52.9219 3.7793H38.7578V1.40039H52.9219V3.7793ZM48.2734 14.1973L46.0723 15.1816C45.1061 13.1764 43.9941 11.3079 42.7363 9.57617C43.8118 8.22721 44.8008 6.57747 45.7031 4.62695L48 5.51562C47.1706 7.05599 46.3594 8.40039 45.5664 9.54883C46.9883 11.8092 47.8906 13.3587 48.2734 14.1973ZM53.0449 14.1426L50.8301 15.1816C49.9733 13.4134 48.8887 11.5951 47.5762 9.72656C48.834 7.90365 49.832 6.21289 50.5703 4.6543L52.7031 5.59766C52.3385 6.54557 51.5729 7.92188 50.4062 9.72656C51.4453 11.2669 52.3249 12.7389 53.0449 14.1426ZM43.4609 14.1699L41.3418 15.127C40.4668 13.4225 39.3548 11.5905 38.0059 9.63086C39.2728 7.87174 40.2708 6.21289 41 4.6543L43.2695 5.51562C42.7865 6.63672 41.957 8.02669 40.7812 9.68555C42.1302 11.7454 43.0234 13.2402 43.4609 14.1699ZM53.3184 24.8613H38.3613V22.4824H44.6367V18.1484H39.1816V15.7969H52.5117V18.1484H47.166V22.4824H53.3184V24.8613ZM38.334 21.6758L36.4336 22.1543C36.1875 20.6322 35.946 19.4837 35.709 18.709L37.582 18.2305C37.901 19.1784 38.1517 20.3268 38.334 21.6758ZM32.1816 19.0508C31.9355 21.1927 31.4798 23.3483 30.8145 25.5176L28.7363 24.5059C29.4564 22.0723 29.903 20.0853 30.0762 18.5449L32.1816 19.0508ZM35.4902 24.082L33.3301 24.6152C33.3483 23.3939 33.1615 21.5482 32.7695 19.0781L34.7793 18.5996C35.2259 20.5501 35.4629 22.3776 35.4902 24.082Z" fill="white"/>
<path d="M25.2363 8.76953H22.9668V23.1934C22.9668 23.8678 22.7572 24.3874 22.3379 24.752C21.9277 25.1257 21.4355 25.3353 20.8613 25.3809C20.2962 25.4264 19.1797 25.431 17.5117 25.3945L16.5 22.8516C17.2383 22.9245 17.9766 22.9609 18.7148 22.9609C19.599 22.9609 20.123 22.8971 20.2871 22.7695C20.4512 22.6419 20.5332 22.4551 20.5332 22.209V11.3672C19.0475 15.0312 16.7598 18.3535 13.6699 21.334L12.0703 19.2969C15.3971 16.3255 17.8079 12.8164 19.3027 8.76953H12.8906V6.36328H20.5332V1.04492H22.9668V6.36328H25.2363V8.76953ZM11.6055 18.6816H4.04492L5.97266 19.5156C5.30729 21.5117 4.21354 23.5579 2.69141 25.6543L0.708984 24.082C2.0944 22.1862 3.07422 20.3861 3.64844 18.6816H2.02148V1.66016H11.6055V18.6816ZM9.1582 6.55469V4.03906H4.42773V6.55469H9.1582ZM9.1582 11.4492V8.76953H4.42773V11.4492H9.1582ZM9.1582 16.3848V13.6367H4.42773V16.3848H9.1582ZM12.3574 23.8906L10.252 25.0117C9.44987 23.4805 8.46094 21.9857 7.28516 20.5273L9.55469 19.4062C10.8307 21.0013 11.765 22.4961 12.3574 23.8906Z" fill="white"/>
</svg>
